<?xml version="1.0" standalone="no"?>
<!DOCTYPE svg PUBLIC "-//W3C//DTD SVG 20010904//EN"
 "http://www.w3.org/TR/2001/REC-SVG-20010904/DTD/svg10.dtd">
<svg version="1.0" xmlns="http://www.w3.org/2000/svg"
 width="111.000000pt" height="48.000000pt" viewBox="0 0 111.000000 48.000000"
 preserveAspectRatio="xMidYMid meet">
<metadata>
Created by potrace 1.16, written by Peter Selinger 2001-2019
</metadata>
<g transform="translate(0.000000,48.000000) scale(0.013875,-0.008000)"
fill="#860095" stroke="white">
<path d="M0 3000 l0 -3000 4000 0 4000 0 0 3000 0 3000 -4000 0 -4000 0 0
-3000z m6821 1703 c64 -54 72 -124 22 -191 -16 -21 -22 -39 -18 -52 3 -11 49
-73 100 -137 95 -118 135 -194 135 -253 0 -42 13 -44 47 -7 37 39 66 94 88
169 26 91 77 127 151 106 69 -18 77 -69 35 -198 -33 -101 -96 -198 -174 -272
-99 -94 -282 -162 -492 -183 -70 -7 -196 9 -238 30 -41 21 -46 20 -87 -19 -64
-62 -134 -91 -231 -94 -73 -3 -93 -1 -130 18 -24 12 -52 29 -61 37 -15 13 -23
8 -80 -49 -54 -56 -72 -67 -126 -82 -84 -23 -161 -14 -220 26 -40 28 -44 29
-65 14 -147 -106 -244 -143 -402 -152 -110 -7 -206 11 -256 47 -15 10 -29 19
-32 19 -3 0 -32 -26 -64 -57 -68 -68 -129 -100 -212 -114 -105 -16 -182 10
-249 86 -58 66 -69 125 -48 254 47 286 56 354 51 371 -8 25 -56 41 -81 28 -84
-46 -111 -119 -148 -413 -3 -22 -17 -112 -32 -200 -22 -138 -29 -165 -53 -195
-36 -45 -81 -57 -136 -36 -40 16 -42 16 -96 -13 -123 -66 -291 -67 -372 -2
-16 13 -20 12 -42 -12 -37 -39 -107 -84 -161 -104 -76 -27 -188 -24 -253 7
-46 21 -55 22 -65 10 -20 -27 -90 -77 -130 -94 -23 -10 -67 -16 -109 -16 -57
0 -78 5 -112 25 l-42 24 -24 -25 c-51 -55 -174 -104 -259 -104 -102 0 -206 65
-250 156 -33 67 -24 181 43 554 32 173 57 332 57 352 0 108 -130 123 -199 22
-37 -54 -49 -101 -96 -378 -117 -687 -125 -729 -146 -763 -48 -78 -167 -91
-219 -25 -31 39 -26 86 60 557 77 425 86 514 58 557 -35 53 -123 38 -175 -30
-38 -51 -45 -74 -79 -269 -29 -168 -56 -327 -108 -627 -24 -138 -44 -222 -57
-246 -55 -98 -195 -100 -235 -3 -17 40 -20 20 51 428 25 143 70 406 101 585
30 178 62 338 70 356 32 67 151 97 209 52 18 -14 32 -18 39 -12 49 37 116 76
146 84 78 22 155 6 214 -44 l37 -31 52 49 c29 27 85 65 127 85 67 32 83 36
155 35 62 0 89 -5 121 -21 65 -35 101 -70 127 -126 44 -94 43 -106 -7 -396
-14 -80 -30 -167 -36 -195 -25 -120 -70 -391 -70 -422 0 -42 34 -68 75 -58 31
8 88 61 110 104 8 16 35 149 59 294 50 300 66 343 146 403 69 50 136 67 247
60 84 -6 92 -5 98 13 7 22 80 60 116 60 37 0 89 -37 104 -73 16 -39 14 -60
-40 -387 -52 -316 -52 -316 -26 -330 49 -26 132 24 173 104 20 40 104 504 92
515 -3 3 -22 4 -42 3 -50 -3 -82 25 -89 78 -9 67 35 112 126 126 23 4 43 9 45
13 2 3 20 98 40 209 20 112 43 217 51 233 30 56 101 82 153 55 68 -35 74 -76
42 -271 -11 -66 -20 -132 -20 -147 0 -28 1 -28 64 -28 58 0 67 -3 85 -26 56
-72 -8 -165 -123 -179 -29 -4 -58 -10 -63 -13 -6 -4 -22 -79 -36 -167 -58
-361 -58 -365 -22 -400 61 -62 180 -4 240 116 24 46 48 162 89 424 48 307 119
694 133 722 42 90 160 99 202 16 16 -32 13 -113 -9 -246 -25 -150 -26 -172 -2
-162 41 17 162 18 206 1 60 -23 120 -90 142 -159 17 -55 17 -56 -19 -274 -45
-263 -46 -290 -13 -299 34 -8 89 19 119 58 53 69 75 137 102 313 32 216 42
259 72 319 104 206 404 269 550 114 57 -60 78 -114 78 -198 0 -100 -36 -181
-111 -249 -76 -70 -146 -94 -266 -90 -90 3 -93 3 -96 -19 -2 -13 6 -43 18 -68
30 -60 69 -77 170 -72 93 6 167 39 243 108 89 81 100 110 146 405 47 296 60
334 122 359 50 20 92 11 130 -26 38 -39 38 -77 -1 -313 -16 -99 -35 -229 -42
-288 -10 -95 -10 -110 4 -124 22 -21 58 -11 97 29 60 62 79 120 131 416 56
322 56 321 79 348 25 31 55 44 101 44 32 0 48 -6 70 -29 16 -16 32 -40 36 -55
5 -22 -32 -269 -87 -576 -14 -79 -11 -99 14 -111 35 -16 89 11 125 60 22 30
31 57 36 103 11 102 26 136 83 197 53 55 55 60 119 261 36 113 77 219 89 236
51 68 157 86 216 37z m9 -1358 c31 -16 60 -61 60 -93 0 -10 -38 -223 -84 -473
-111 -603 -110 -593 -96 -618 13 -25 40 -27 80 -6 56 29 114 131 146 258 22
89 56 127 114 127 52 0 100 -42 100 -87 -1 -28 -19 -109 -38 -168 -31 -95 -96
-200 -157 -253 -116 -103 -296 -127 -401 -54 l-40 29 -33 -28 c-54 -44 -144
-88 -228 -110 -89 -23 -241 -28 -298 -9 -20 7 -43 9 -53 5 -9 -3 -13 -3 -9 1
4 4 -10 18 -31 30 l-37 23 -47 -49 c-25 -27 -69 -60 -97 -75 -93 -46 -232 -50
-305 -7 l-32 19 -39 -35 c-167 -146 -409 -76 -441 127 -4 27 3 88 22 185 26
135 27 145 11 169 -15 23 -81 46 -94 33 -3 -2 -13 -46 -24 -98 -10 -51 -23
-115 -29 -141 -12 -58 -74 -153 -129 -196 -58 -46 -162 -92 -223 -98 -49 -5
-56 -9 -68 -36 -55 -125 -242 -213 -393 -186 -34 6 -70 12 -79 12 -9 1 -15 3
-13 6 3 2 -4 11 -15 18 -19 13 -24 12 -57 -18 -81 -71 -219 -110 -315 -90 -29
7 -67 20 -84 30 l-32 19 -27 -28 c-14 -15 -50 -41 -78 -56 -69 -38 -178 -41
-244 -6 l-43 22 -22 -26 c-38 -44 -146 -124 -222 -165 l-73 -39 -27 -132 c-30
-148 -66 -234 -122 -292 -90 -92 -227 -138 -349 -115 -63 12 -92 26 -143 73
-54 50 -76 101 -76 181 -1 127 58 197 248 294 l76 38 -53 7 c-166 21 -278 157
-279 336 0 73 103 660 137 775 47 163 187 290 358 325 163 33 339 -54 392
-193 24 -65 18 -157 -15 -192 -70 -75 -199 -46 -228 53 -21 68 -68 91 -133 65
-57 -22 -113 -91 -132 -160 -19 -71 -127 -626 -127 -654 0 -36 31 -89 61 -104
65 -34 175 2 228 75 31 43 37 64 86 320 29 148 52 213 83 229 37 20 118 14
147 -12 50 -42 45 -102 -41 -471 -19 -82 -33 -156 -32 -164 4 -16 108 85 145
139 18 28 35 93 73 293 53 276 67 316 132 371 67 57 165 81 266 65 63 -11 66
-10 86 14 29 34 58 46 109 46 54 0 91 -26 107 -75 12 -36 10 -51 -71 -479 -34
-176 -32 -206 7 -206 73 0 150 81 160 167 5 48 165 905 186 998 16 72 61 115
121 115 54 0 91 -26 107 -75 10 -29 6 -61 -20 -201 -17 -91 -29 -168 -27 -170
2 -2 21 1 42 7 103 29 221 -22 285 -121 45 -71 50 -157 17 -307 -28 -128 -26
-132 47 -89 57 33 79 79 116 244 l33 143 -28 51 c-50 92 -32 194 45 245 79 54
194 2 209 -95 6 -34 8 -36 76 -52 93 -22 134 -41 180 -81 75 -66 80 -115 33
-349 -26 -131 -29 -162 -18 -175 19 -22 44 -18 75 13 57 55 81 132 134 416 55
292 69 330 130 356 69 28 151 -23 151 -95 0 -18 -20 -143 -46 -277 -25 -134
-46 -265 -47 -293 -2 -45 0 -50 26 -63 34 -17 55 -10 97 31 53 52 77 119 115
323 20 104 40 204 45 222 23 86 112 186 198 225 32 14 75 22 134 25 76 4 92 1
140 -20 108 -50 162 -135 162 -255 -1 -127 -72 -236 -193 -295 -39 -20 -62
-23 -154 -23 -95 0 -108 -2 -113 -18 -3 -10 0 -25 8 -34 9 -12 9 -15 1 -9 -17
10 -16 0 3 -29 28 -43 75 -65 141 -65 124 0 251 70 318 175 35 54 51 124 170
765 25 135 53 265 61 288 27 72 98 101 164 67z m-1193 -230 c114 -75 61 -245
-76 -245 -74 0 -142 87 -126 160 20 90 125 135 202 85z"/>
<path d="M6676 4232 c-4 -7 3 -25 18 -42 30 -36 41 -84 32 -144 -6 -35 -16
-53 -46 -80 -22 -20 -51 -38 -66 -42 l-27 -7 24 -18 c13 -10 41 -19 62 -19
149 -1 177 177 50 319 -27 30 -42 41 -47 33z"/>
<path d="M5050 4201 c-34 -9 -66 -61 -74 -118 -4 -27 -9 -56 -12 -65 -5 -16 2
-18 51 -18 61 0 108 19 125 49 5 11 10 39 10 63 -1 67 -43 105 -100 89z"/>
<path d="M2703 3765 c-31 -22 -50 -84 -67 -215 -35 -268 -36 -315 -7 -343 41
-41 111 8 136 97 8 28 24 123 35 211 18 132 19 167 10 200 -19 62 -61 82 -107
50z"/>
<path d="M6079 2595 c-31 -17 -58 -75 -61 -135 l-3 -45 37 -3 c20 -2 52 4 72
12 68 29 83 125 26 166 -33 23 -37 24 -71 5z"/>
<path d="M4070 2274 c-17 -15 -37 -38 -44 -53 -15 -29 -63 -270 -70 -354 -2
-15 -6 -30 -9 -34 -14 -13 -6 -49 16 -77 29 -36 72 -38 117 -6 40 28 49 64 22
93 -55 60 -68 144 -31 204 21 33 64 63 92 63 18 0 41 107 31 145 -13 50 -75
60 -124 19z"/>
<path d="M3223 2143 c-11 -10 -25 -28 -31 -39 -14 -27 -54 -268 -69 -417 -9
-86 46 -115 104 -54 43 44 48 59 78 256 28 180 27 211 -7 249 -26 27 -48 28
-75 5z"/>
<path d="M2270 1053 c-92 -53 -126 -107 -98 -152 33 -53 126 -6 146 75 30 118
28 122 -48 77z"/>
</g>
</svg>
